<svg xmlns="http://www.w3.org/2000/svg" style="display: none"><defs><symbol id="like" width="22" height="22" viewBox="0 0 22 22">
<path d="M17.94 5.1C17.09 4.18 15.91 3.67 14.64 3.67C13.69 3.67 12.82 3.97 12.05 4.56C11.66 4.86 11.31 5.23 11 5.66C10.69 5.23 10.34 4.86 9.95 4.56C9.18 3.97 8.31 3.67 7.36 3.67C6.09 3.67 4.91 4.18 4.06 5.1C3.21 6.02 2.75 7.27 2.75 8.63C2.75 10.02 3.27 11.3 4.39 12.65C5.39 13.85 6.82 15.07 8.48 16.49C9.05 16.97 9.69 17.52 10.36 18.11C10.54 18.26 10.77 18.35 11 18.35C11.23 18.35 11.46 18.26 11.64 18.11C12.31 17.52 12.95 16.97 13.52 16.49C15.18 15.07 16.61 13.85 17.61 12.65C18.73 11.3 19.25 10.02 19.25 8.63C19.25 7.27 18.79 6.02 17.94 5.1Z" fill="currentColor"/>

</symbol><symbol id="arrow_right" width="19" height="19" viewBox="0 0 19 19">
<path d="M13.72 9.53C13.72 9.4 13.7 9.26 13.65 9.14C13.59 9.02 13.52 8.9 13.42 8.81L7.29 2.68C7.1 2.48 6.84 2.38 6.57 2.38C6.3 2.38 6.03 2.48 5.84 2.68C5.65 2.87 5.54 3.13 5.54 3.4C5.54 3.67 5.65 3.93 5.84 4.13L11.26 9.53L5.85 14.94C5.68 15.13 5.6 15.39 5.61 15.64C5.62 15.9 5.72 16.14 5.91 16.33C6.09 16.51 6.33 16.61 6.59 16.62C6.85 16.63 7.1 16.55 7.29 16.38L13.42 10.25C13.61 10.06 13.72 9.8 13.72 9.53Z" fill="#464646"/>

</symbol><symbol id="arrow_left" width="19" height="19" viewBox="0 0 19 19">
<path d="M5.28 9.53C5.28 9.4 5.3 9.26 5.35 9.14C5.41 9.02 5.48 8.9 5.58 8.81L11.71 2.68C11.9 2.48 12.16 2.38 12.43 2.38C12.7 2.38 12.97 2.48 13.16 2.68C13.35 2.87 13.46 3.13 13.46 3.4C13.46 3.67 13.35 3.93 13.16 4.13L7.74 9.53L13.15 14.94C13.31 15.13 13.4 15.39 13.39 15.64C13.38 15.9 13.28 16.14 13.09 16.33C12.91 16.51 12.67 16.61 12.41 16.62C12.15 16.63 11.9 16.55 11.71 16.38L5.58 10.25C5.39 10.06 5.28 9.8 5.28 9.53Z" fill="#464646"/>

</symbol><symbol id="resize" width="24" height="24" viewBox="0 0 24 24">
<path fill-rule="evenodd" clip-rule="evenodd" d="M19.2 11.1C19.2 11.34 19.29 11.57 19.46 11.74C19.63 11.91 19.86 12 20.1 12C20.34 12 20.57 11.91 20.74 11.74C20.91 11.57 21 11.34 21 11.1V3.9C21 3.66 20.91 3.43 20.74 3.26C20.57 3.09 20.34 3 20.1 3H12.9C12.66 3 12.43 3.09 12.26 3.26C12.09 3.43 12 3.66 12 3.9C12 4.14 12.09 4.37 12.26 4.54C12.43 4.71 12.66 4.8 12.9 4.8H19.2V11.1ZM4.8 12.9C4.8 12.66 4.71 12.43 4.54 12.26C4.37 12.09 4.14 12 3.9 12C3.66 12 3.43 12.09 3.26 12.26C3.09 12.43 3 12.66 3 12.9V20.1C3 20.34 3.09 20.57 3.26 20.74C3.43 20.91 3.66 21 3.9 21H11.1C11.34 21 11.57 20.91 11.74 20.74C11.91 20.57 12 20.34 12 20.1C12 19.86 11.91 19.63 11.74 19.46C11.57 19.29 11.34 19.2 11.1 19.2H4.8V12.9Z" fill="#464646"/>

</symbol><symbol id="arrow_small_right" width="12" height="11.999996185302734" viewBox="0 0 12 11.999996185302734">
<path d="M8.67 5.98C8.67 6.06 8.65 6.15 8.62 6.23C8.59 6.31 8.54 6.38 8.48 6.44L4.61 10.31C4.48 10.43 4.32 10.5 4.15 10.5C3.98 10.5 3.81 10.43 3.69 10.31C3.57 10.19 3.5 10.02 3.5 9.85C3.5 9.68 3.57 9.52 3.69 9.39L7.11 5.98L3.7 2.57C3.59 2.44 3.54 2.28 3.54 2.12C3.55 1.96 3.62 1.8 3.73 1.69C3.85 1.57 4 1.51 4.16 1.5C4.32 1.49 4.48 1.55 4.61 1.66L8.48 5.53C8.6 5.65 8.67 5.81 8.67 5.98Z" fill="#656565"/>

</symbol><symbol id="check" width="14" height="14" viewBox="0 0 14 14">
<path fill-rule="evenodd" clip-rule="evenodd" d="M12.06 3.11C12.18 3.23 12.25 3.4 12.25 3.57C12.25 3.75 12.18 3.91 12.06 4.04L5.7 10.39C5.58 10.52 5.41 10.58 5.24 10.58C5.07 10.58 4.9 10.52 4.77 10.39L1.93 7.54C1.81 7.42 1.75 7.25 1.75 7.08C1.75 6.91 1.82 6.75 1.94 6.63C2.06 6.51 2.23 6.44 2.4 6.44C2.57 6.44 2.73 6.5 2.86 6.61L5.24 9L11.13 3.11C11.25 2.99 11.42 2.92 11.59 2.92C11.77 2.92 11.93 2.99 12.06 3.11Z" fill="#32312F"/>

</symbol></defs></svg>